<svg width="247" height="31" viewBox="0 0 247 31" fill="none" xmlns="http://www.w3.org/2000/svg">
<path d="M0.624 24V1.92H6.128L12.336 15.168L18.544 1.92H24.048V24H19.44V10.048L14.256 21.12H10.416L5.232 10.048V24H0.624ZM28.8955 4.32V-1.90735e-06H33.5035V4.32H28.8955ZM28.9915 24V7.104H33.4075V24H28.9915ZM38.0228 24V7.104H47.3668C50.8228 7.104 52.5508 8.832 52.5508 12.288V24H48.1348V11.968C48.1348 11.2853 47.7934 10.944 47.1108 10.944H42.4388V24H38.0228ZM56.9268 4.32V-1.90735e-06H61.5348V4.32H56.9268ZM57.0228 24V7.104H61.4388V24H57.0228ZM66.054 24V0.32H70.47V7.104H75.398C78.854 7.104 80.582 8.832 80.582 12.288V18.816C80.582 22.272 78.854 24 75.398 24H66.054ZM70.47 20.16H75.142C75.8247 20.16 76.166 19.8187 76.166 19.136V11.968C76.166 11.2853 75.8247 10.944 75.142 10.944H70.47V20.16ZM84.673 18.816V12.288C84.673 8.832 86.401 7.104 89.857 7.104H94.337C97.793 7.104 99.521 8.832 99.521 12.288V18.816C99.521 22.272 97.793 24 94.337 24H89.857C86.401 24 84.673 22.272 84.673 18.816ZM89.089 19.136C89.089 19.8187 89.4303 20.16 90.113 20.16H94.081C94.7637 20.16 95.105 19.8187 95.105 19.136V11.968C95.105 11.2853 94.7637 10.944 94.081 10.944H90.113C89.4303 10.944 89.089 11.2853 89.089 11.968V19.136ZM103.291 22.56V20.16H110.651C111.376 20.16 111.739 19.7547 111.739 18.944C111.739 18.112 111.44 17.6427 110.843 17.536L107.387 16.96C104.656 16.4907 103.291 14.912 103.291 12.224C103.291 8.81067 105.019 7.104 108.475 7.104H113.435L115.355 8.544V10.944H108.731C108.005 10.944 107.643 11.3493 107.643 12.16C107.643 13.0133 107.973 13.4933 108.635 13.6L112.059 14.176C114.768 14.624 116.123 16.1813 116.123 18.848C116.123 22.2827 114.384 24 110.907 24H105.211L103.291 22.56ZM119.541 22.56V20.16H126.901C127.626 20.16 127.989 19.7547 127.989 18.944C127.989 18.112 127.69 17.6427 127.093 17.536L123.637 16.96C120.906 16.4907 119.541 14.912 119.541 12.224C119.541 8.81067 121.269 7.104 124.725 7.104H129.685L131.605 8.544V10.944H124.981C124.255 10.944 123.893 11.3493 123.893 12.16C123.893 13.0133 124.223 13.4933 124.885 13.6L128.309 14.176C131.018 14.624 132.373 16.1813 132.373 18.848C132.373 22.2827 130.634 24 127.157 24H121.461L119.541 22.56Z" fill="#FF9900"/>
<path d="M136.367 18.624V7.296C136.367 3.712 138.159 1.92 141.743 1.92H150.991L153.135 3.584V6.08H141.935C141.295 6.08 140.975 6.4 140.975 7.04V18.88C140.975 19.52 141.295 19.84 141.935 19.84H149.167V14.72H144.943V10.56H153.775V24H141.743C138.159 24 136.367 22.208 136.367 18.624ZM162.342 24C158.886 24 157.158 22.304 157.158 18.912C157.158 15.52 158.886 13.824 162.342 13.824H166.758V11.968C166.758 11.2853 166.417 10.944 165.734 10.944H158.95V8.544L160.87 7.104H165.99C169.446 7.104 171.174 8.832 171.174 12.288V24H162.342ZM161.574 19.136C161.574 19.8187 161.915 20.16 162.598 20.16H166.758V17.216H162.598C161.915 17.216 161.574 17.5573 161.574 18.24V19.136ZM175.648 24V7.104H194.912C198.368 7.104 200.096 8.832 200.096 12.288V24H195.68V11.968C195.68 11.2853 195.338 10.944 194.656 10.944H190.08V24H185.664V10.944H180.064V24H175.648ZM204.489 4.32V-1.90735e-06H209.097V4.32H204.489ZM204.585 24V7.104H209.001V24H204.585ZM213.617 24V7.104H222.961C226.417 7.104 228.145 8.832 228.145 12.288V24H223.729V11.968C223.729 11.2853 223.387 10.944 222.705 10.944H218.033V24H213.617ZM232.233 18.816V12.288C232.233 8.832 233.961 7.104 237.417 7.104H246.76V25.216C246.76 28.672 245.033 30.4 241.577 30.4H235.593L233.673 28.96V26.56H241.321C242.003 26.56 242.345 26.2187 242.345 25.536V24H237.417C233.961 24 232.233 22.272 232.233 18.816ZM236.649 19.136C236.649 19.8187 236.99 20.16 237.673 20.16H242.345V10.944H237.673C236.99 10.944 236.649 11.2853 236.649 11.968V19.136Z" fill="black"/>
</svg>
